# xmcd
#
# Track frame offsets:
#	150
#	11037
#	22495
#	32292
#	46341
#	58577
#	71080
#	81869
#	93199
#	103817
#	118575
#	131808
#	142568
#	157675
#	167862
#	180806
#	192297
#	205915
#
# Disc length: 2938 seconds
# Revision: 2
# Processed by: cddbd v1.5.2PL0 Copyright (c) Steve Scherf et al.
# Submitted via: dBpowerAMP V12.0
#
DISCID=e90b7812
DTITLE=Various Artist - Country Legends
DYEAR=1998
DGENRE=Country
TTITLE0=Sammi Smith - Help Me Make It Trough the Night
TTITLE1=Skeeter Davis - Crying Time
TTITLE2=Ned Miller - From a Jack to a King
TTITLE3=Billie Jo Spears - Wich Way You Goin' Billy
TTITLE4=Lynn Anderson - Stand by Your Man
TTITLE5=Faron Young - It's Four in the Morning
TTITLE6=Carl Belew - Am I That Easy to Forget
TTITLE7=Dolly Parton - Makin' Believe
TTITLE8=Freddy Fender - A Man Can Cry
TTITLE9=The Kingston Trio - Tom Dooley
TTITLE10=Donna Fargo - Daddy
TTITLE11=Patsy Cline - I Cried All the Way to the Altar
TTITLE12=Bobby Bare - Leaving on a Jet Plane
TTITLE13=Johnny Cash - Goodbye Little Darling
TTITLE14=Charlie Rich - I Take It on Home
TTITLE15=Willie Nelson - Suffering in Silence
TTITLE16=Kenny Rogers - I'm Gonna Sing You a Sad Song Suzy
TTITLE17=Glen Campell - Crying
EXTD=
EXTT0=
EXTT1=
EXTT2=
EXTT3=
EXTT4=
EXTT5=
EXTT6=
EXTT7=
EXTT8=
EXTT9=
EXTT10=
EXTT11=
EXTT12=
EXTT13=
EXTT14=
EXTT15=
EXTT16=
EXTT17=
PLAYORDER=
